<svg width="240" height="39" viewBox="0 0 240 39" fill="none" xmlns="http://www.w3.org/2000/svg">
<mask id="mask0_741_8" style="mask-type:alpha" maskUnits="userSpaceOnUse" x="0" y="0" width="240" height="39">
<g clip-path="url(#clip0_741_8)">
<path d="M27.9674 0.878913C20.2424 0.874913 12.1824 2.61491 4.04745 4.87191C3.01445 5.07991 2.00645 5.75591 1.47345 6.59191C0.98345 7.37991 0.80545 8.17091 0.65245 8.99991C-0.13755 13.4279 -0.0415503 17.7759 0.12245 22.5939C0.15845 23.6969 0.32245 25.0039 0.83745 25.7989C1.37545 26.6019 2.29745 27.1119 3.39845 27.2789C4.80505 27.4852 6.21607 27.6603 7.63045 27.8039L7.31845 36.5019C7.27045 37.1939 7.60845 37.7689 8.02845 38.0999C8.40445 38.3859 8.82345 38.5129 9.25345 38.5449C10.1135 38.6099 11.1225 38.2419 11.6235 37.2879C13.8185 33.0639 15.1955 31.1989 17.9405 28.3929C25.0985 28.5689 31.3475 28.1709 38.4225 27.6479C40.9235 27.5829 42.6405 25.5379 43.0945 23.9049C44.4515 19.6729 44.6624 14.4489 44.8064 9.16791C44.8674 7.07491 44.1414 5.01991 42.8564 3.93391C41.6344 2.94291 40.1545 2.58391 38.7985 2.21591C35.0315 1.36291 31.2634 0.904913 27.9674 0.878913ZM38.2575 4.18891C39.6155 4.55791 40.8125 4.91291 41.5675 5.52591C42.8275 6.86491 42.7854 7.75591 42.7674 9.20091C42.6254 14.3229 42.3794 19.2939 41.2234 23.0609C40.7254 24.4659 39.8574 25.4659 38.2174 25.6169C31.0094 26.1499 24.7555 26.5619 17.5105 26.3559C17.3694 26.3514 17.2289 26.3759 17.0976 26.4278C16.9664 26.4798 16.8472 26.5581 16.7474 26.6579C13.7034 29.7319 12.1465 31.8679 9.82645 36.3339C9.77245 36.4359 9.65545 36.4979 9.51145 36.5089C9.41445 36.5039 9.37545 36.4289 9.36945 36.3609L9.68345 26.9289C9.70245 26.4199 9.28245 25.9339 8.77645 25.8789C7.08457 25.7173 5.3973 25.5106 3.71645 25.2589C2.99045 25.1479 2.72245 24.9489 2.52345 24.6529C2.17745 23.8279 2.18545 23.3179 2.15845 22.5249C1.99645 17.7499 1.91645 13.5769 2.64945 9.42491C2.71745 8.81091 2.94745 8.18291 3.19145 7.65791C3.59545 7.02591 4.21445 6.93291 4.83545 6.76091C12.7914 4.56391 20.5754 2.92091 27.9035 2.91591C31.4955 3.04591 35.2675 3.40591 38.2575 4.18891V4.18891ZM10.7785 12.2789C9.68245 13.5919 9.79145 15.3749 10.6384 16.5689C11.0804 17.1939 11.7704 17.6969 12.6104 17.8109C13.7014 17.9009 14.3935 17.4589 15.1405 16.9509C16.4935 15.7749 16.6305 13.7229 15.6014 12.2409C15.0774 11.4859 14.2395 11.0329 13.3835 11.0009C12.2115 11.0129 11.4155 11.5359 10.7785 12.2779V12.2789ZM22.6345 11.2069C21.5425 11.2419 20.6595 11.9979 20.1205 12.8139C19.5035 13.7469 19.1435 14.9149 19.6425 16.0599C20.6025 18.2629 23.9195 18.2359 25.2425 15.9969C25.8525 14.9649 25.6965 13.7919 25.2425 12.9409C24.7905 12.0909 24.1065 11.3979 23.1115 11.2389C22.9538 11.213 22.7941 11.2023 22.6345 11.2069V11.2069ZM32.2594 11.4139C31.9194 11.4059 31.5694 11.4379 31.2414 11.5249C29.9294 11.8749 28.8125 13.2289 28.9815 14.9619C29.0675 15.8339 29.4685 16.6839 30.1915 17.2699C30.9145 17.8549 31.9644 18.1169 33.0714 17.8899C34.3434 17.6299 35.1315 16.6049 35.3945 15.6149C35.6575 14.6249 35.5914 13.6159 34.9804 12.7979C34.6625 12.3752 34.2522 12.0307 33.7808 11.7908C33.3093 11.551 32.7893 11.422 32.2604 11.4139H32.2594ZM13.2944 13.0369C13.5394 13.0389 13.7324 13.1169 13.9314 13.4029C14.3764 14.0449 14.2525 15.0179 13.8035 15.4079C13.3565 15.7979 13.0774 15.8319 12.8814 15.8059C12.6854 15.7789 12.4864 15.6439 12.3084 15.3919C11.9684 14.9119 11.8684 14.1359 12.3154 13.5819C12.5534 13.2659 12.9905 13.0689 13.2955 13.0369H13.2944ZM22.7775 13.2599C22.8155 13.2659 23.2414 13.5129 23.4454 13.8959C23.6494 14.2789 23.6875 14.6349 23.4935 14.9619C22.9165 15.9379 21.6895 15.6739 21.5035 15.2489C21.4335 15.0869 21.4865 14.4359 21.8235 13.9289C22.1585 13.4199 22.5805 13.2289 22.7775 13.2589V13.2599ZM33.3414 14.0079C33.4034 14.0909 33.5545 14.6479 33.4375 15.0899C33.3195 15.5319 33.1275 15.8049 32.6575 15.9009C32.0555 16.0249 31.7175 15.9009 31.4645 15.6939C31.2105 15.4889 31.0395 15.1419 31.0025 14.7709C30.9125 13.8509 31.2425 13.6379 31.7665 13.4979C32.3765 13.3479 33.0664 13.6099 33.3414 14.0079V14.0079Z" fill="#FF52C1"/>
<path d="M57.6104 4.99601C57.6264 4.73601 57.7214 4.50201 57.8974 4.29501C57.983 4.19353 58.0906 4.11288 58.2121 4.05917C58.3336 4.00546 58.4656 3.9801 58.5984 3.98501H65.4244C65.6544 3.98501 65.8914 4.08101 66.1364 4.27201C66.2512 4.35444 66.3445 4.46321 66.4085 4.58919C66.4726 4.71518 66.5054 4.85469 66.5043 4.99601V15.889H77.9254V4.99601C77.9254 4.72001 78.0213 4.48301 78.2123 4.28401C78.4043 4.08401 78.6524 3.98401 78.9594 3.98401H85.6934C85.9994 3.98401 86.2674 4.06101 86.4974 4.21401C86.7274 4.36801 86.8424 4.61301 86.8424 4.95001V37.1C86.8424 37.437 86.7424 37.69 86.5424 37.858C86.3444 38.027 86.0834 38.111 85.7624 38.111H78.9594C78.6534 38.111 78.4043 38.027 78.2123 37.858C78.0213 37.69 77.9254 37.438 77.9254 37.1V24.047H66.5043V37.1C66.5043 37.422 66.4004 37.67 66.1944 37.847C65.9874 38.023 65.7073 38.111 65.3543 38.111H58.5984C57.9554 38.111 57.6264 37.812 57.6104 37.215V4.99601ZM120.485 37.721C120.286 37.889 120.075 37.996 119.853 38.042C119.646 38.0867 119.435 38.1102 119.222 38.112H115.752C115.476 38.112 115.238 38.062 115.039 37.962C114.839 37.862 114.671 37.728 114.533 37.56C114.392 37.3855 114.276 37.1919 114.189 36.985C114.097 36.7688 114.02 36.5463 113.959 36.319L113.247 33.377C113.017 33.852 112.684 34.392 112.247 34.997C111.775 35.6391 111.214 36.2113 110.581 36.697C109.907 37.227 109.102 37.671 108.168 38.031C107.233 38.391 106.161 38.571 104.95 38.571C103.204 38.571 101.618 38.234 100.193 37.56C98.7982 36.9082 97.557 35.9682 96.5514 34.802C95.5484 33.638 94.7704 32.278 94.2194 30.722C93.6674 29.168 93.3913 27.509 93.3913 25.748V10.695C93.3913 10.113 93.5184 9.67301 93.7714 9.37401C94.0234 9.07501 94.4253 8.92601 94.9773 8.92601H100.285C100.945 8.92601 101.396 9.03601 101.641 9.25901C101.886 9.48101 102.009 9.91401 102.009 10.557V25.517C102.009 26.177 102.159 26.801 102.457 27.391C102.756 27.981 103.15 28.501 103.641 28.953C104.131 29.405 104.686 29.762 105.307 30.022C105.927 30.282 106.559 30.412 107.203 30.412C107.754 30.412 108.325 30.282 108.915 30.022C109.509 29.7587 110.059 29.4059 110.546 28.976C111.044 28.54 111.454 28.026 111.776 27.436C112.098 26.846 112.258 26.222 112.258 25.564V10.626C112.258 10.366 112.308 10.106 112.408 9.84501C112.508 9.58501 112.657 9.38501 112.856 9.24701C113.055 9.12501 113.243 9.04101 113.419 8.99501C113.595 8.94901 113.799 8.92501 114.028 8.92501H119.222C119.88 8.92501 120.355 9.08701 120.646 9.40801C120.937 9.73001 121.083 10.159 121.083 10.695V36.411C121.083 36.701 121.018 36.97 120.888 37.215C120.758 37.46 120.578 37.652 120.348 37.789L120.485 37.721V37.721ZM147.166 34.549C146.752 34.963 146.296 35.407 145.799 35.882C145.301 36.357 144.753 36.802 144.156 37.215C143.555 37.6306 142.908 37.974 142.226 38.238C141.515 38.5102 140.758 38.6465 139.996 38.64C137.913 38.64 135.994 38.25 134.239 37.468C132.529 36.7173 130.988 35.6266 129.712 34.262C128.448 32.906 127.46 31.309 126.748 29.47C126.035 27.632 125.679 25.656 125.679 23.541C125.679 21.411 126.035 19.431 126.748 17.601C127.46 15.771 128.448 14.177 129.712 12.821C130.987 11.4578 132.528 10.3707 134.239 9.62701C135.994 8.85301 137.913 8.46601 139.996 8.46601C140.839 8.46601 141.609 8.58901 142.306 8.83401C142.979 9.06703 143.62 9.3835 144.213 9.77601C144.788 10.159 145.316 10.592 145.799 11.074C146.281 11.557 146.737 12.028 147.166 12.488V1.98501C147.166 1.49501 147.316 1.08201 147.614 0.745014C147.913 0.407014 148.361 0.239014 148.959 0.239014H154.129C154.329 0.239014 154.539 0.281014 154.761 0.365014C154.983 0.450014 155.186 0.568014 155.371 0.722014C155.554 0.875014 155.703 1.05901 155.818 1.27301C155.933 1.48801 155.991 1.72501 155.991 1.98501V36.342C155.991 37.522 155.371 38.112 154.129 38.112H149.625C149.319 38.112 149.081 38.072 148.913 37.996C148.746 37.9211 148.6 37.8069 148.487 37.663C148.359 37.4944 148.255 37.309 148.177 37.112C148.069 36.8526 147.954 36.5958 147.833 36.342L147.166 34.549V34.549ZM133.952 23.541C133.945 24.5074 134.104 25.4679 134.423 26.38C134.737 27.26 135.185 28.023 135.768 28.666C136.357 29.3141 137.072 29.8342 137.87 30.194C138.69 30.57 139.598 30.757 140.594 30.757C141.574 30.757 142.497 30.581 143.363 30.229C144.204 29.8921 144.973 29.3964 145.626 28.769C146.276 28.1407 146.802 27.3966 147.178 26.575C147.568 25.732 147.787 24.828 147.833 23.863V23.541C147.837 22.5793 147.649 21.6266 147.281 20.738C146.925 19.8669 146.407 19.0715 145.753 18.394C145.098 17.7173 144.318 17.1749 143.455 16.797C142.554 16.402 141.579 16.2023 140.594 16.211C139.598 16.211 138.69 16.406 137.87 16.797C137.05 17.187 136.35 17.72 135.768 18.394C135.177 19.0839 134.721 19.8792 134.423 20.738C134.108 21.6386 133.949 22.5867 133.953 23.541H133.952ZM182.672 34.549C182.258 34.963 181.802 35.407 181.304 35.882C180.806 36.357 180.258 36.802 179.661 37.215C179.06 37.6306 178.413 37.974 177.731 38.238C177.02 38.5102 176.263 38.6465 175.501 38.64C173.418 38.64 171.499 38.25 169.745 37.468C168.034 36.7175 166.494 35.6267 165.217 34.262C163.954 32.906 162.965 31.309 162.253 29.47C161.541 27.632 161.184 25.656 161.184 23.541C161.184 21.411 161.541 19.431 162.253 17.601C162.965 15.771 163.953 14.177 165.217 12.821C166.492 11.4576 168.033 10.3705 169.745 9.62701C171.499 8.85301 173.418 8.46601 175.501 8.46601C176.344 8.46601 177.114 8.58901 177.811 8.83401C178.484 9.06703 179.125 9.3835 179.718 9.77601C180.293 10.159 180.821 10.592 181.304 11.074C181.787 11.557 182.242 12.028 182.671 12.488V1.98501C182.671 1.49501 182.821 1.08201 183.119 0.745014C183.419 0.407014 183.866 0.239014 184.464 0.239014H189.634C189.834 0.239014 190.044 0.281014 190.266 0.365014C190.489 0.450014 190.692 0.568014 190.876 0.722014C191.059 0.875014 191.209 1.05901 191.324 1.27301C191.438 1.48801 191.496 1.72501 191.496 1.98501V36.342C191.496 37.522 190.876 38.112 189.634 38.112H185.13C184.824 38.112 184.586 38.072 184.418 37.996C184.252 37.921 184.106 37.8067 183.993 37.663C183.865 37.4944 183.761 37.309 183.683 37.112C183.575 36.8526 183.46 36.5958 183.338 36.342L182.671 34.549H182.672ZM169.457 23.541C169.45 24.5074 169.609 25.4679 169.928 26.38C170.243 27.26 170.691 28.023 171.273 28.666C171.862 29.3142 172.578 29.8343 173.376 30.194C174.196 30.57 175.103 30.757 176.099 30.757C177.079 30.757 178.002 30.581 178.868 30.229C179.71 29.8922 180.478 29.3965 181.132 28.769C181.781 28.1405 182.307 27.3964 182.682 26.575C183.073 25.732 183.292 24.828 183.338 23.863V23.541C183.342 22.5793 183.154 21.6266 182.786 20.738C182.43 19.8669 181.912 19.0715 181.258 18.394C180.603 17.7173 179.823 17.1749 178.96 16.797C178.059 16.402 177.084 16.2023 176.099 16.211C175.103 16.211 174.195 16.406 173.376 16.797C172.556 17.187 171.855 17.72 171.273 18.394C170.682 19.0839 170.226 19.8792 169.928 20.738C169.613 21.6386 169.454 22.5867 169.458 23.541H169.457ZM197.61 2.00801C197.61 1.51801 197.732 1.10501 197.977 0.768014C198.223 0.430014 198.644 0.262014 199.241 0.262014H204.871C205.025 0.262014 205.186 0.304014 205.354 0.388014C205.531 0.478601 205.69 0.599426 205.825 0.745014C205.971 0.898014 206.093 1.08201 206.193 1.29601C206.293 1.51101 206.343 1.74801 206.343 2.00801V36.342C206.343 36.924 206.178 37.364 205.848 37.663C205.519 37.962 205.094 38.111 204.573 38.111H199.241C198.644 38.111 198.223 37.961 197.977 37.663C197.732 37.364 197.61 36.923 197.61 36.342V2.00801ZM236.31 34.618C234.978 35.8489 233.437 36.8332 231.76 37.525C230.062 38.2248 228.242 38.5803 226.405 38.571C224.305 38.571 222.322 38.188 220.453 37.421C218.627 36.6827 216.957 35.6027 215.535 34.239C214.119 32.8728 212.979 31.2456 212.18 29.447C211.352 27.609 210.939 25.61 210.939 23.449C210.939 22.101 211.103 20.795 211.433 19.531C211.752 18.2943 212.223 17.1019 212.835 15.981C213.441 14.8778 214.182 13.8548 215.041 12.936C215.899 12.0156 216.877 11.2154 217.948 10.557C219.039 9.89017 220.214 9.37224 221.441 9.01701C222.733 8.64455 224.072 8.459 225.416 8.46601C226.688 8.46601 227.921 8.63501 229.116 8.97201C230.311 9.30901 231.434 9.78401 232.483 10.396C233.533 11.009 234.493 11.745 235.367 12.603C236.229 13.4467 236.985 14.392 237.619 15.418C238.248 16.4366 238.739 17.5338 239.079 18.681C239.423 19.838 239.596 21.029 239.596 22.254C239.596 23.051 239.584 23.702 239.561 24.208C239.538 24.713 239.419 25.116 239.205 25.414C238.99 25.714 238.635 25.92 238.136 26.034C237.638 26.15 236.906 26.207 235.942 26.207H219.396C219.549 27.187 219.859 28.007 220.326 28.667C220.759 29.2917 221.309 29.826 221.946 30.24C222.559 30.631 223.21 30.91 223.9 31.08C224.539 31.2418 225.195 31.3264 225.853 31.332C226.405 31.332 226.971 31.274 227.553 31.16C228.127 31.0474 228.692 30.8937 229.243 30.7C229.759 30.5207 230.259 30.2976 230.736 30.033C231.188 29.781 231.552 29.516 231.828 29.241C232.073 29.041 232.284 28.892 232.46 28.792C232.636 28.692 232.824 28.643 233.023 28.643C233.223 28.643 233.425 28.713 233.633 28.85C233.885 29.0261 234.12 29.2261 234.333 29.447L236.769 32.205C236.937 32.405 237.045 32.585 237.091 32.745C237.137 32.906 237.16 33.071 237.16 33.239C237.16 33.546 237.075 33.81 236.907 34.032C236.738 34.2553 236.536 34.4527 236.309 34.618H236.31ZM225.256 15.475C224.658 15.475 224.08 15.594 223.521 15.831C222.954 16.0732 222.424 16.3944 221.946 16.785C221.456 17.183 221.016 17.635 220.625 18.141C220.252 18.6181 219.932 19.1345 219.671 19.681H231.414C231.106 19.1049 230.757 18.5517 230.369 18.026C230.001 17.5272 229.568 17.0791 229.082 16.693C228.586 16.3024 228.026 15.9994 227.427 15.797C226.807 15.582 226.083 15.475 225.256 15.475Z" fill="#00252E"/>
</g>
</mask>
<g mask="url(#mask0_741_8)">
<rect x="-16" y="-22" width="275" height="102" fill="white"/>
</g>
<defs>
<clipPath id="clip0_741_8">
<rect width="240" height="39" fill="white"/>
</clipPath>
</defs>
</svg>
